# Blender v2.66 (sub 1) OBJ File: 'weapon_set_kingdom.blend'
# www.blender.org
mtllib LongSword.mtl
o KingdomLongsword_Cube
v 0.000000 0.245211 -0.024003
v 0.000000 0.440254 -0.024003
v 0.000000 0.245212 0.023997
v 0.000000 0.440255 0.023997
v 0.084327 0.440254 -0.000003
v 0.111061 0.245212 -0.000003
v -0.084326 0.440255 -0.000003
v -0.111060 0.245212 -0.000003
v -0.072899 0.647439 -0.000003
v 0.072900 0.647439 -0.000003
v 0.000001 0.647439 0.023997
v 0.000000 0.647439 -0.024003
v 0.000001 0.899932 -0.024003
v 0.000001 0.899932 0.023997
v 0.081001 0.899932 -0.000003
v -0.080999 0.899932 -0.000003
v -0.089099 1.145122 -0.000004
v 0.089101 1.145122 -0.000004
v 0.000001 1.145122 0.023996
v 0.000001 1.145122 -0.024004
v 0.000001 1.375847 -0.021604
v 0.000001 1.375847 0.021596
v 0.084496 1.375847 -0.000004
v -0.084494 1.375847 -0.000004
v -0.065981 1.566179 -0.000004
v 0.065983 1.566179 -0.000004
v 0.000001 1.566179 0.021596
v 0.000001 1.566179 -0.021604
v 0.000001 1.673098 -0.019204
v 0.000001 1.673098 0.019196
v 0.055172 1.673098 -0.000004
v -0.055170 1.673098 -0.000004
v -0.039759 1.770299 -0.000004
v 0.039761 1.770299 -0.000004
v 0.000001 1.770299 0.011996
v 0.000001 1.770299 -0.012004
v 0.000001 1.918987 -0.000004
v -0.087479 0.086759 -0.000002
v 0.087480 0.086760 -0.000002
v 0.000000 0.086759 0.023998
v 0.000001 0.086758 -0.024002
v 0.000001 0.006758 -0.024002
v 0.000001 0.006759 0.023998
v 0.077761 0.006759 -0.000002
v -0.077759 0.006759 -0.000002
v -0.077759 -0.073242 -0.000001
v 0.077761 -0.073241 -0.000001
v 0.000001 -0.073242 0.023999
v 0.000001 -0.073242 -0.024001
v 0.000001 -0.153242 -0.024001
v 0.000001 -0.153241 0.023999
v 0.087481 -0.153241 -0.000001
v -0.087479 -0.153241 -0.000001
v -0.119999 -0.233242 -0.000000
v 0.120001 -0.233241 -0.000000
v 0.000001 -0.273242 0.024000
v 0.000001 -0.273243 -0.024000
v 0.000001 -0.443186 -0.023742
v 0.000001 -0.443185 0.023750
v 0.088761 -0.378405 0.000003
v -0.088758 -0.378406 0.000003
v 0.000002 -0.455816 0.055856
v 0.000002 -0.455817 -0.055846
v 0.083417 -0.420005 0.035363
v -0.083414 -0.420006 0.035363
v 0.083417 -0.420005 -0.035357
v -0.083414 -0.420006 -0.035357
v -0.077962 -0.476237 0.000004
v 0.077965 -0.476236 0.000004
v -0.301904 -0.303181 0.000003
v -0.321379 -0.338851 0.038899
v -0.321379 -0.338851 -0.038893
v -0.342997 -0.366522 0.000004
v 0.301907 -0.303180 0.000003
v 0.321382 -0.338850 0.038899
v 0.321382 -0.338850 -0.038893
v 0.343000 -0.366520 0.000004
v 0.399741 -0.360306 0.000004
v 0.374848 -0.323185 -0.038893
v 0.374848 -0.323185 0.038899
v 0.345815 -0.278319 0.000003
v -0.399738 -0.360308 0.000004
v -0.374845 -0.323186 -0.038893
v -0.374845 -0.323186 0.038899
v -0.345812 -0.278321 0.000003
v -0.029528 -1.280609 0.037282
v -0.059052 -1.280609 0.000002
v -0.029528 -1.280609 -0.037277
v 0.029521 -1.280609 -0.037277
v 0.059046 -1.280609 0.000002
v 0.029521 -1.280609 0.037282
v -0.036453 -0.526219 0.046026
v -0.072903 -0.526219 0.000002
v -0.036453 -0.526219 -0.046022
v 0.036446 -0.526219 -0.046022
v 0.072897 -0.526219 0.000002
v 0.036447 -0.526219 0.046026
v -0.000003 -1.304639 0.000002
v 0.065731 -1.397249 -0.037277
v 0.110017 -1.433699 0.000002
v 0.065731 -1.397249 0.037282
v 0.022955 -1.360799 0.000002
v -0.065737 -1.397249 0.037282
v -0.110024 -1.433699 0.000002
v -0.065737 -1.397249 -0.037277
v -0.022962 -1.360799 0.000002
v -0.000003 -1.415249 0.037282
v -0.000003 -1.369799 0.000002
v -0.000003 -1.451699 0.000002
v -0.000003 -1.415249 -0.037277
v 0.000000 0.245211 -0.024003
v 0.000000 0.440254 -0.024003
v 0.000000 0.245212 0.023997
v 0.000000 0.440255 0.023997
v 0.084327 0.440254 -0.000003
v 0.111061 0.245212 -0.000003
v -0.084326 0.440255 -0.000003
v -0.111060 0.245212 -0.000003
v 0.000000 0.647439 -0.024003
v 0.072900 0.647439 -0.000003
v -0.072899 0.647439 -0.000003
v 0.000001 0.647439 0.023997
v 0.081001 0.899932 -0.000003
v 0.000001 0.899932 0.023997
v -0.080999 0.899932 -0.000003
v 0.000001 0.899932 -0.024003
v 0.000001 1.145122 -0.024004
v 0.089101 1.145122 -0.000004
v -0.089099 1.145122 -0.000004
v 0.000001 1.145122 0.023996
v 0.084496 1.375847 -0.000004
v 0.000001 1.375847 0.021596
v -0.084494 1.375847 -0.000004
v 0.000001 1.375847 -0.021604
v 0.000001 1.566179 -0.021604
v 0.065983 1.566179 -0.000004
v -0.065981 1.566179 -0.000004
v 0.000001 1.566179 0.021596
v 0.055172 1.673098 -0.000004
v 0.000001 1.673098 0.019196
v -0.055170 1.673098 -0.000004
v 0.000001 1.673098 -0.019204
v 0.000001 1.770299 -0.012004
v 0.039761 1.770299 -0.000004
v -0.039759 1.770299 -0.000004
v 0.000001 1.770299 0.011996
v 0.000001 1.918987 -0.000004
v 0.000001 1.918987 -0.000004
v 0.000001 1.918987 -0.000004
v 0.087480 0.086760 -0.000002
v 0.000001 0.086758 -0.024002
v -0.087479 0.086759 -0.000002
v 0.000000 0.086759 0.023998
v 0.000001 0.006759 0.023998
v 0.077761 0.006759 -0.000002
v 0.000001 0.006758 -0.024002
v -0.077759 0.006759 -0.000002
v 0.077761 -0.073241 -0.000001
v 0.000001 -0.073242 -0.024001
v -0.077759 -0.073242 -0.000001
v 0.000001 -0.073242 0.023999
v 0.000001 -0.153241 0.023999
v 0.087481 -0.153241 -0.000001
v 0.000001 -0.153242 -0.024001
v -0.087479 -0.153241 -0.000001
v 0.120001 -0.233241 -0.000000
v 0.000001 -0.273243 -0.024000
v -0.119999 -0.233242 -0.000000
v 0.000001 -0.273242 0.024000
v 0.000001 -0.443185 0.023750
v 0.000001 -0.443185 0.023750
v 0.088761 -0.378405 0.000003
v 0.088761 -0.378405 0.000003
v 0.088761 -0.378405 0.000003
v 0.000001 -0.443186 -0.023742
v 0.000001 -0.443186 -0.023742
v -0.088758 -0.378406 0.000003
v -0.088758 -0.378406 0.000003
v -0.088758 -0.378406 0.000003
v 0.000002 -0.455816 0.055856
v 0.000002 -0.455816 0.055856
v 0.000002 -0.455816 0.055856
v -0.083414 -0.420006 0.035363
v 0.000002 -0.455817 -0.055846
v 0.000002 -0.455817 -0.055846
v 0.000002 -0.455817 -0.055846
v -0.083414 -0.420006 -0.035357
v 0.083417 -0.420005 0.035363
v 0.083417 -0.420005 -0.035357
v -0.301904 -0.303181 0.000003
v -0.321379 -0.338851 0.038899
v -0.321379 -0.338851 -0.038893
v -0.077962 -0.476237 0.000004
v -0.077962 -0.476237 0.000004
v -0.342997 -0.366522 0.000004
v 0.321382 -0.338850 0.038899
v 0.301907 -0.303180 0.000003
v 0.321382 -0.338850 -0.038893
v 0.077965 -0.476236 0.000004
v 0.077965 -0.476236 0.000004
v 0.343000 -0.366520 0.000004
v 0.399741 -0.360306 0.000004
v 0.399741 -0.360306 0.000004
v 0.374848 -0.323185 0.038899
v 0.374848 -0.323185 0.038899
v 0.374848 -0.323185 -0.038893
v 0.374848 -0.323185 -0.038893
v 0.345815 -0.278319 0.000003
v 0.345815 -0.278319 0.000003
v -0.374845 -0.323186 0.038899
v -0.374845 -0.323186 0.038899
v -0.399738 -0.360308 0.000004
v -0.399738 -0.360308 0.000004
v -0.374845 -0.323186 -0.038893
v -0.374845 -0.323186 -0.038893
v -0.345812 -0.278321 0.000003
v -0.345812 -0.278321 0.000003
v 0.110017 -1.433699 0.000002
v 0.110017 -1.433699 0.000002
v 0.110017 -1.433699 0.000002
v 0.065731 -1.397249 -0.037277
v 0.065731 -1.397249 -0.037277
v 0.065731 -1.397249 0.037282
v 0.065731 -1.397249 0.037282
v -0.110024 -1.433699 0.000002
v -0.110024 -1.433699 0.000002
v -0.110024 -1.433699 0.000002
v -0.065737 -1.397249 0.037282
v -0.065737 -1.397249 0.037282
v -0.065737 -1.397249 -0.037277
v -0.065737 -1.397249 -0.037277
v -0.000003 -1.304639 0.000002
v -0.022962 -1.360799 0.000002
v 0.022955 -1.360799 0.000002
v -0.000003 -1.415249 0.037282
v -0.000003 -1.369799 0.000002
v -0.000003 -1.451699 0.000002
v -0.000003 -1.415249 -0.037277
vt 0.151711 0.291510
vt 0.150213 0.374109
vt 0.113109 0.373436
vt 0.103595 0.290636
vt 0.048117 0.291534
vt 0.096234 0.292406
vt 0.083723 0.374807
vt 0.046619 0.374135
vt 0.009514 0.373461
vt 0.000000 0.290660
vt 0.199827 0.292381
vt 0.187318 0.374781
vt 0.148623 0.461789
vt 0.116149 0.461201
vt 0.181098 0.462379
vt 0.045029 0.461814
vt 0.012555 0.461226
vt 0.077503 0.462404
vt 0.078838 0.569303
vt 0.043093 0.568650
vt 0.007348 0.568008
vt 0.182433 0.569281
vt 0.146687 0.568628
vt 0.110941 0.567985
vt 0.144809 0.672278
vt 0.105802 0.671624
vt 0.183814 0.673037
vt 0.041217 0.672297
vt 0.002211 0.671643
vt 0.080220 0.673056
vt 0.076359 0.770586
vt 0.039451 0.769874
vt 0.002541 0.769250
vt 0.179950 0.770571
vt 0.143041 0.769859
vt 0.106130 0.769234
vt 0.141584 0.850318
vt 0.112257 0.849891
vt 0.170907 0.850952
vt 0.037995 0.850329
vt 0.008670 0.849903
vt 0.067316 0.850964
vt 0.061864 0.896140
vt 0.037180 0.895360
vt 0.012484 0.895247
vt 0.165455 0.896132
vt 0.140769 0.895351
vt 0.116071 0.895238
vt 0.140024 0.936533
vt 0.122347 0.936590
vt 0.157687 0.937229
vt 0.036434 0.936538
vt 0.018759 0.936595
vt 0.054096 0.937234
vt 0.035286 0.999999
vt 0.138877 1.000000
vt 0.114535 0.223709
vt 0.152928 0.224400
vt 0.010941 0.223730
vt 0.049335 0.224422
vt 0.191321 0.225101
vt 0.087729 0.225124
vt 0.049950 0.190557
vt 0.084389 0.191184
vt 0.153542 0.190537
vt 0.187979 0.191162
vt 0.015511 0.189933
vt 0.119105 0.189913
vt 0.119715 0.156066
vt 0.154156 0.156674
vt 0.016121 0.156083
vt 0.050565 0.156692
vt 0.188597 0.157315
vt 0.085008 0.157334
vt 0.051181 0.122780
vt 0.089619 0.123546
vt 0.154771 0.122765
vt 0.193205 0.123530
vt 0.012740 0.122149
vt 0.116335 0.122137
vt 0.103595 0.087893
vt 0.155693 0.071913
vt 0.000000 0.087900
vt 0.052105 0.071921
vt 0.207177 0.089770
vt 0.103595 0.089783
vt 0.053412 0.000000
vt 0.091789 0.028084
vt 0.156996 0.000000
vt 0.195370 0.028078
vt 0.014040 0.026671
vt 0.117630 0.026669
vt 0.376426 0.424561
vt 0.336127 0.446728
vt 0.339936 0.424011
vt 0.376426 0.411168
vt 0.376420 0.368558
vt 0.376421 0.381949
vt 0.339931 0.369104
vt 0.336125 0.346387
vt 0.412915 0.424011
vt 0.416723 0.446727
vt 0.416716 0.346386
vt 0.412910 0.369104
vt 0.247948 0.471853
vt 0.239237 0.450972
vt 0.239238 0.342132
vt 0.247951 0.321253
vt 0.340631 0.396557
vt 0.229635 0.360410
vt 0.340638 0.396557
vt 0.229636 0.432694
vt 0.513609 0.450971
vt 0.504898 0.471851
vt 0.504892 0.321253
vt 0.513606 0.342132
vt 0.412210 0.396557
vt 0.523209 0.360410
vt 0.412213 0.396559
vt 0.523209 0.432694
vt 0.545666 0.435107
vt 0.535174 0.456073
vt 0.535171 0.337028
vt 0.545666 0.357994
vt 0.523454 0.313348
vt 0.523460 0.479753
vt 0.217670 0.456074
vt 0.207177 0.435107
vt 0.207177 0.357994
vt 0.217673 0.337028
vt 0.229390 0.313348
vt 0.229385 0.479756
vt 0.453704 0.238567
vt 0.425826 0.236137
vt 0.422362 0.211292
vt 0.447447 0.211292
vt 0.422362 0.106122
vt 0.424793 0.078244
vt 0.449637 0.074780
vt 0.449637 0.099865
vt 0.454192 0.000588
vt 0.483695 0.000588
vt 0.468944 0.015676
vt 0.483695 0.312760
vt 0.454192 0.312760
vt 0.468944 0.297671
vt 0.502680 0.000000
vt 0.515525 0.063056
vt 0.493824 0.045925
vt 0.502680 0.313348
vt 0.493824 0.267422
vt 0.515525 0.250292
vt 0.475972 0.031626
vt 0.475972 0.281722
vt 0.435207 0.313348
vt 0.422362 0.250292
vt 0.444063 0.267422
vt 0.435207 0.000000
vt 0.444063 0.045926
vt 0.422362 0.063056
vt 0.461915 0.281722
vt 0.461915 0.031626
vt 0.468944 0.278963
vt 0.468944 0.260119
vt 0.468944 0.238567
vt 0.468944 0.053229
vt 0.468944 0.034385
vt 0.468944 0.074780
vt 0.351569 0.001177
vt 0.349361 0.273554
vt 0.314976 0.274640
vt 0.316371 0.002190
vt 0.280773 0.272952
vt 0.280919 0.000837
vt 0.242473 0.271958
vt 0.245629 0.000000
vt 0.208306 0.272450
vt 0.210462 0.000901
vt 0.422362 0.003139
vt 0.421843 0.275054
vt 0.387735 0.273992
vt 0.386893 0.001900
vt 0.368409 0.313348
vt 0.422362 0.303510
vt 0.314655 0.303131
vt 0.260734 0.311943
vt 0.207177 0.300732
vn 0.236763 -0.000549 -0.971557
vn 0.265358 0.012177 -0.964049
vn 0.263833 0.012421 -0.964476
vn 0.236763 -0.000488 -0.971557
vn 0.236763 -0.000549 0.971557
vn 0.236763 -0.000488 0.971557
vn 0.263833 0.012421 0.964476
vn 0.265358 0.012177 0.964049
vn -0.236763 -0.000549 0.971557
vn -0.265358 0.012177 0.964049
vn -0.263833 0.012421 0.964476
vn -0.236763 -0.000488 0.971557
vn -0.265358 0.012177 -0.964049
vn -0.236763 -0.000549 -0.971557
vn -0.236763 -0.000488 -0.971557
vn -0.263833 0.012421 -0.964476
vn 0.294839 0.001617 -0.955535
vn 0.294839 0.001679 -0.955535
vn -0.294839 0.001679 -0.955535
vn -0.294839 0.001617 -0.955535
vn -0.294839 0.001617 0.955535
vn -0.294839 0.001679 0.955535
vn 0.294839 0.001679 0.955535
vn 0.294839 0.001617 0.955535
vn 0.284402 -0.004608 0.958678
vn 0.284677 -0.004608 0.958586
vn -0.284677 -0.004608 0.958586
vn -0.284402 -0.004608 0.958678
vn -0.284402 -0.004608 -0.958678
vn -0.284677 -0.004608 -0.958586
vn 0.284677 -0.004608 -0.958586
vn 0.284402 -0.004608 -0.958678
vn 0.262825 0.001526 -0.964812
vn 0.262795 0.001556 -0.964843
vn -0.262795 0.001556 -0.964843
vn -0.262825 0.001526 -0.964812
vn -0.262825 0.001526 0.964812
vn -0.262764 0.001556 0.964843
vn 0.262764 0.001556 0.964843
vn 0.262825 0.001526 0.964812
vn 0.264595 0.010376 0.964293
vn 0.264962 0.010468 0.964171
vn -0.264962 0.010468 0.964171
vn -0.264595 0.010376 0.964293
vn -0.264595 0.010376 -0.964293
vn -0.264992 0.010468 -0.964171
vn 0.264992 0.010468 -0.964171
vn 0.264595 0.010376 -0.964293
vn 0.297494 0.020051 -0.954497
vn 0.296243 0.019684 -0.954894
vn -0.296243 0.019684 -0.954894
vn -0.297494 0.020081 -0.954497
vn -0.297494 0.020051 0.954497
vn -0.296243 0.019684 0.954894
vn 0.296243 0.019684 0.954894
vn 0.297494 0.020051 0.954497
vn 0.315683 0.041993 0.947905
vn 0.315409 0.043123 0.947966
vn -0.315409 0.043123 0.947966
vn -0.315683 0.041993 0.947905
vn -0.315683 0.041993 -0.947905
vn -0.315439 0.043123 -0.947935
vn 0.315439 0.043123 -0.947935
vn 0.315683 0.041993 -0.947905
vn 0.300058 0.068300 -0.951445
vn 0.301462 0.067293 -0.951079
vn -0.301462 0.067293 -0.951079
vn -0.300058 0.068300 -0.951445
vn -0.300058 0.068300 0.951445
vn -0.301431 0.067293 0.951079
vn 0.301431 0.067293 0.951079
vn 0.300058 0.068300 0.951445
vn 0.288064 0.077029 0.954497
vn -0.288064 0.077029 0.954497
vn -0.288064 0.077029 -0.954497
vn 0.288064 0.077029 -0.954497
vn 0.255196 -0.017243 -0.966704
vn 0.256996 -0.017212 -0.966247
vn -0.255196 -0.017212 0.966704
vn -0.256996 -0.017212 0.966247
vn -0.256996 -0.017212 -0.966247
vn -0.255196 -0.017243 -0.966704
vn 0.256996 -0.017212 0.966247
vn 0.255196 -0.017212 0.966704
vn 0.286935 -0.008454 0.957884
vn 0.286630 -0.008759 0.957976
vn -0.286905 -0.008454 -0.957884
vn -0.286630 -0.008759 -0.957976
vn -0.286630 -0.008759 0.957976
vn -0.286935 -0.008454 0.957884
vn 0.286630 -0.008759 -0.957976
vn 0.286905 -0.008454 -0.957884
vn 0.286630 0.008759 -0.957976
vn 0.286905 0.008454 -0.957884
vn -0.286630 0.008759 0.957976
vn -0.286935 0.008454 0.957884
vn -0.286905 0.008454 -0.957884
vn -0.286630 0.008759 -0.957976
vn 0.286935 0.008454 0.957884
vn 0.286630 0.008759 0.957976
vn 0.248939 0.026246 0.968139
vn 0.244606 0.027589 0.969207
vn -0.248939 0.026246 -0.968139
vn -0.244606 0.027589 -0.969207
vn -0.244606 0.027589 0.969207
vn -0.248939 0.026246 0.968139
vn 0.244606 0.027589 -0.969207
vn 0.248939 0.026246 -0.968139
vn 0.225227 0.011109 -0.974212
vn 0.228187 -0.000214 -0.973601
vn -0.225227 0.011139 0.974212
vn -0.228187 -0.000183 0.973601
vn -0.228187 -0.000214 -0.973601
vn -0.225227 0.011109 -0.974212
vn 0.228187 -0.000183 0.973601
vn 0.225227 0.011139 0.974212
vn 0.234321 -0.023988 0.971862
vn -0.234321 -0.024018 -0.971831
vn -0.234321 -0.023988 0.971862
vn 0.234321 -0.024018 -0.971831
vn 0.000000 0.791070 0.611713
vn 0.251106 0.686697 0.682180
vn 0.270608 0.720786 0.638142
vn 0.000000 0.791040 -0.611713
vn 0.270608 0.720786 -0.638142
vn 0.251106 0.686697 -0.682180
vn -0.270608 0.720786 0.638142
vn -0.251106 0.686697 0.682180
vn -0.251106 0.686697 -0.682180
vn -0.270608 0.720756 -0.638142
vn 0.238990 0.623432 0.744438
vn 0.239906 0.619770 0.747185
vn 0.239906 0.619770 -0.747185
vn 0.238990 0.623432 -0.744438
vn -0.301828 -0.580645 -0.756127
vn -0.319163 -0.570421 -0.756767
vn -0.179479 -0.678121 -0.712668
vn -0.193152 -0.662954 -0.723289
vn -0.319193 -0.570421 0.756767
vn -0.301828 -0.580615 0.756127
vn -0.193121 -0.662923 0.723319
vn -0.179449 -0.678121 0.712668
vn -0.239906 0.619770 0.747185
vn -0.238990 0.623432 0.744438
vn -0.238990 0.623432 -0.744438
vn -0.239906 0.619770 -0.747185
vn 0.319193 -0.570421 -0.756767
vn 0.301828 -0.580645 -0.756127
vn 0.193152 -0.662954 -0.723289
vn 0.179479 -0.678121 -0.712668
vn 0.301828 -0.580615 0.756127
vn 0.319193 -0.570421 0.756767
vn 0.179479 -0.678121 0.712668
vn 0.193121 -0.662923 0.723319
vn 0.142338 -0.717032 0.682333
vn 0.142338 -0.717032 -0.682302
vn -0.246529 0.592364 -0.766991
vn -0.246529 0.592364 0.766991
vn -0.142338 -0.717032 0.682333
vn -0.142338 -0.717032 -0.682302
vn 0.246529 0.592364 -0.766991
vn 0.246529 0.592364 0.766991
vn -0.835475 0.549516 0.000000
vn 0.835475 0.549516 0.000000
vn -0.406323 -0.514298 0.755211
vn 0.406323 -0.514298 0.755211
vn -0.406293 -0.514298 -0.755211
vn 0.406293 -0.514298 -0.755211
vn -0.264260 -0.168615 -0.949583
vn 0.264260 -0.168615 -0.949583
vn 0.000000 -0.531663 -0.846919
vn 0.264260 -0.168615 0.949583
vn -0.264260 -0.168615 0.949583
vn 0.000000 -0.531663 0.846919
vn 0.987793 0.155766 0.000000
vn 0.746025 0.241127 -0.620685
vn 0.746055 0.241127 0.620685
vn -0.471908 0.285867 -0.833979
vn -0.551378 0.161016 -0.818537
vn -0.551378 0.161016 0.818537
vn -0.471908 0.285867 0.833979
vn -0.987793 0.155766 0.000000
vn -0.746055 0.241127 0.620685
vn -0.746025 0.241127 -0.620685
vn 0.471908 0.285867 0.833979
vn 0.551378 0.161016 0.818537
vn 0.551378 0.161016 -0.818537
vn 0.471908 0.285867 -0.833979
vn 0.000000 0.617695 0.786401
vn 0.136509 -0.666555 0.732810
vn 0.000000 -0.672842 0.739738
vn -0.136509 -0.666555 0.732810
vn 0.000000 0.617695 -0.786401
vn 0.136509 -0.666555 -0.732810
vn 0.000000 -0.672842 -0.739738
vn -0.136509 -0.666555 -0.732810
vn -0.449782 0.006012 0.893094
vn -0.997436 0.071474 0.000000
vn -0.449782 0.006043 -0.893094
vn 0.449782 0.006012 -0.893094
vn 0.997436 0.071383 0.000000
vn 0.449782 0.005951 0.893094
vn 0.000000 0.034547 0.999390
vn 0.985565 0.169286 0.000000
vn -0.985534 0.169439 0.000000
vn 0.000000 0.034608 -0.999390
usemtl Silver
s 1
f 1/1/1 2/2/2 115/3/3 116/4/4
f 3/5/5 6/6/6 5/7/7 4/8/8
f 113/5/9 114/8/10 7/9/11 118/10/12
f 112/2/13 111/1/14 8/11/15 117/12/16
f 115/3/3 2/2/2 12/13/17 10/14/18
f 112/2/13 117/12/16 9/15/19 119/13/20
f 7/9/11 114/8/10 11/16/21 121/17/22
f 4/8/8 5/7/7 120/18/23 122/16/24
f 122/16/24 120/18/23 15/19/25 14/20/26
f 121/17/22 11/16/21 124/20/27 16/21/28
f 119/13/20 9/15/19 125/22/29 13/23/30
f 10/14/18 12/13/17 126/23/31 123/24/32
f 123/24/32 126/23/31 20/25/33 18/26/34
f 13/23/30 125/22/29 17/27/35 127/25/36
f 16/21/28 124/20/27 19/28/37 129/29/38
f 14/20/26 15/19/25 128/30/39 130/28/40
f 130/28/40 128/30/39 23/31/41 22/32/42
f 129/29/38 19/28/37 132/32/43 24/33/44
f 127/25/36 17/27/35 133/34/45 21/35/46
f 18/26/34 20/25/33 134/35/47 131/36/48
f 131/36/48 134/35/47 28/37/49 26/38/50
f 21/35/46 133/34/45 25/39/51 135/37/52
f 24/33/44 132/32/43 27/40/53 137/41/54
f 22/32/42 23/31/41 136/42/55 138/40/56
f 138/40/56 136/42/55 31/43/57 30/44/58
f 137/41/54 27/40/53 140/44/59 32/45/60
f 135/37/52 25/39/51 141/46/61 29/47/62
f 26/38/50 28/37/49 142/47/63 139/48/64
f 139/48/64 142/47/63 36/49/65 34/50/66
f 29/47/62 141/46/61 33/51/67 143/49/68
f 32/45/60 140/44/59 35/52/69 145/53/70
f 30/44/58 31/43/57 144/54/71 146/52/72
f 146/52/72 144/54/71 37/55/73
f 145/53/70 35/52/69 148/55/74
f 143/49/68 33/51/67 147/56/75
f 34/50/66 36/49/65 149/56/76
f 1/1/1 116/4/4 39/57/77 41/58/78
f 113/5/9 118/10/12 38/59/79 40/60/80
f 8/11/15 111/1/14 151/58/81 152/61/82
f 6/6/6 3/5/5 153/60/83 150/62/84
f 150/62/84 153/60/83 43/63/85 44/64/86
f 152/61/82 151/58/81 42/65/87 45/66/88
f 40/60/80 38/59/79 157/67/89 154/63/90
f 41/58/78 39/57/77 155/68/91 156/65/92
f 156/65/92 155/68/91 47/69/93 49/70/94
f 154/63/90 157/67/89 46/71/95 48/72/96
f 45/66/88 42/65/87 159/70/97 160/73/98
f 44/64/86 43/63/85 161/72/99 158/74/100
f 158/74/100 161/72/99 51/75/101 52/76/102
f 160/73/98 159/70/97 50/77/103 53/78/104
f 48/72/96 46/71/95 165/79/105 162/75/106
f 49/70/94 47/69/93 163/80/107 164/77/108
f 164/77/108 163/80/107 55/81/109 57/82/110
f 162/75/106 165/79/105 54/83/111 56/84/112
f 53/78/104 50/77/103 167/82/113 168/85/114
f 52/76/102 51/75/101 169/84/115 166/86/116
f 166/86/116 169/84/115 59/87/117 60/88/117
f 168/85/114 167/82/113 58/89/118 61/90/118
f 56/84/112 54/83/111 177/91/119 170/87/119
f 57/82/110 55/81/109 172/92/120 175/89/120
f 171/93/121 178/94/122 65/95/123 62/96/121
f 176/97/124 63/98/124 67/99/125 179/100/126
f 171/93/121 62/96/121 64/101/127 173/102/128
f 176/97/124 174/103/129 66/104/130 63/98/124
f 65/95/123 178/94/122 70/105/131 71/106/132
f 179/100/126 67/99/125 72/107/133 190/108/134
f 187/99/135 68/109/136 73/110/137 192/107/138
f 193/111/139 183/95/140 191/106/141 195/112/142
f 173/102/128 64/101/127 75/113/143 74/114/144
f 66/104/130 174/103/129 197/115/145 76/116/146
f 69/117/147 189/104/148 198/116/149 77/118/150
f 188/101/151 199/119/152 201/120/153 196/113/154
f 196/113/154 201/120/153 78/121/155 80/122/155
f 77/118/150 198/116/149 79/123/156 202/124/156
f 76/116/146 197/115/145 81/125/157 206/123/157
f 74/114/144 75/113/143 204/122/158 208/126/158
f 195/112/142 191/106/141 84/127/159 82/128/159
f 192/107/138 73/110/137 212/129/160 83/130/160
f 190/108/134 72/107/133 214/130/161 85/131/161
f 71/106/132 70/105/131 216/132/162 210/127/162
f 217/133/163 215/134/163 213/135/163 211/136/163
f 209/137/164 205/138/164 203/139/164 207/140/164
f 181/96/165 183/95/140 193/111/139
f 182/96/166 199/119/152 188/101/151
f 185/98/167 68/109/136 187/99/135
f 186/98/168 189/104/148 69/117/147
f 88/141/169 89/142/170 98/143/171
f 91/144/172 86/145/173 232/146/174
f 89/142/170 90/147/175 100/148/176 99/149/176
f 90/150/175 91/144/172 101/151/177 218/152/177
f 98/143/171 89/142/170 221/149/178 234/153/179
f 91/144/172 232/146/174 102/154/180 223/151/181
f 86/145/173 87/155/182 104/156/183 103/157/183
f 87/158/182 88/141/169 105/159/184 225/160/184
f 232/146/174 86/145/173 228/157/185 106/161/186
f 88/141/169 98/143/171 233/162/187 230/159/188
f 102/154/180 108/163/189 107/164/189 223/151/181
f 108/163/189 106/161/186 228/157/185 107/164/189
f 224/151/190 235/164/191 109/165/191 219/152/190
f 235/164/191 229/157/192 226/156/192 109/165/191
f 221/149/178 110/166/193 236/167/193 234/153/179
f 110/166/193 230/159/188 233/162/187 236/167/193
f 220/148/194 237/168/195 238/166/195 222/149/194
f 237/168/195 227/160/196 231/159/196 238/166/195
usemtl Leather
f 86/169/173 92/170/197 93/171/198 87/172/182
f 87/172/182 93/171/198 94/173/199 88/174/169
f 88/174/169 94/173/199 95/175/200 89/176/170
f 89/176/170 95/175/200 96/177/201 90/178/175
f 90/179/175 96/180/201 97/181/202 91/182/172
f 91/182/172 97/181/202 92/170/197 86/169/173
f 180/183/203 92/170/197 97/181/202
f 180/183/203 97/181/202 96/180/201 200/184/204
f 180/183/203 194/185/205 93/171/198 92/170/197
f 184/186/206 95/175/200 94/173/199
f 93/171/198 194/185/205 184/186/206 94/173/199
f 95/175/200 184/186/206 200/187/204 96/177/201
